<svg xmlns="http://www.w3.org/2000/svg" xmlns:xlink="http://www.w3.org/1999/xlink" viewBox="0 0 2958.94 692.72"><defs><style>.cls-1{isolation:isolate;}.cls-2{fill:url(#linear-gradient);}.cls-3{fill:url(#linear-gradient-2);}.cls-4{fill:url(#linear-gradient-3);}.cls-5{fill:url(#linear-gradient-4);}.cls-6{fill:url(#linear-gradient-5);}.cls-7{fill:url(#linear-gradient-6);}.cls-8{fill:url(#linear-gradient-7);}.cls-9{fill:url(#linear-gradient-8);}.cls-10{fill:url(#linear-gradient-9);}.cls-11{fill:url(#linear-gradient-10);}.cls-12{fill:url(#linear-gradient-11);}.cls-13{fill:url(#linear-gradient-12);}.cls-14{font-size:70.55px;fill:#fff;font-family:GoogleSans-Bold, Google Sans;font-weight:700;letter-spacing:0.25em;}.cls-15{letter-spacing:0.27em;}.cls-16{letter-spacing:0.28em;}.cls-17{letter-spacing:0.24em;}.cls-18{letter-spacing:0.28em;}.cls-19{letter-spacing:0.25em;}.cls-20{letter-spacing:0.27em;}.cls-21{fill:url(#linear-gradient-13);}.cls-22{fill:url(#linear-gradient-14);}.cls-23{fill:url(#linear-gradient-15);}.cls-24{fill:url(#linear-gradient-16);}.cls-25{fill:url(#linear-gradient-17);}.cls-26{fill:url(#linear-gradient-18);}.cls-27{fill:url(#linear-gradient-19);}.cls-28{fill:url(#linear-gradient-20);}.cls-29{fill:url(#linear-gradient-21);}.cls-30{fill:#000023;}.cls-30,.cls-31{opacity:0.42;mix-blend-mode:darken;}.cls-31{fill:url(#linear-gradient-22);}</style><linearGradient id="linear-gradient" x1="677.4" y1="227.4" x2="2886.63" y2="219.91" gradientUnits="userSpaceOnUse"><stop offset="0" stop-color="#1a237e"/><stop offset="0.21" stop-color="#19227a"/><stop offset="0.42" stop-color="#161d6f"/><stop offset="0.62" stop-color="#10165b"/><stop offset="0.82" stop-color="#090c40"/><stop offset="1" stop-color="#000020"/></linearGradient><linearGradient id="linear-gradient-2" x1="677.85" y1="361.72" x2="2887.09" y2="354.23" xlink:href="#linear-gradient"/><linearGradient id="linear-gradient-3" x1="677.41" y1="231.33" x2="2886.65" y2="223.84" xlink:href="#linear-gradient"/><linearGradient id="linear-gradient-4" x1="677.52" y1="263.24" x2="2886.75" y2="255.75" xlink:href="#linear-gradient"/><linearGradient id="linear-gradient-5" x1="677.51" y1="261.32" x2="2886.75" y2="253.83" xlink:href="#linear-gradient"/><linearGradient id="linear-gradient-6" x1="677.52" y1="264.48" x2="2886.76" y2="257" xlink:href="#linear-gradient"/><linearGradient id="linear-gradient-7" x1="677.54" y1="267.67" x2="2886.77" y2="260.19" xlink:href="#linear-gradient"/><linearGradient id="linear-gradient-8" x1="677.53" y1="265.9" x2="2886.76" y2="258.41" xlink:href="#linear-gradient"/><linearGradient id="linear-gradient-9" x1="677.41" y1="229.68" x2="2886.64" y2="222.19" xlink:href="#linear-gradient"/><linearGradient id="linear-gradient-10" x1="677.46" y1="245.93" x2="2886.7" y2="238.45" xlink:href="#linear-gradient"/><linearGradient id="linear-gradient-11" x1="677.65" y1="302.58" x2="2886.89" y2="295.1" xlink:href="#linear-gradient"/><linearGradient id="linear-gradient-12" x1="771.12" y1="457.01" x2="2768.2" y2="457.01" xlink:href="#linear-gradient"/><linearGradient id="linear-gradient-13" x1="769.76" y1="527.51" x2="2778.09" y2="527.51" gradientUnits="userSpaceOnUse"><stop offset="0" stop-color="#f57c00"/><stop offset="0.13" stop-color="#f17a01"/><stop offset="0.26" stop-color="#e57403"/><stop offset="0.39" stop-color="#d26a06"/><stop offset="0.51" stop-color="#b75c0a"/><stop offset="0.64" stop-color="#934b10"/><stop offset="0.76" stop-color="#683518"/><stop offset="0.89" stop-color="#361b20"/><stop offset="1" stop-color="#000029"/></linearGradient><linearGradient id="linear-gradient-14" x1="112.82" y1="316.19" x2="360.17" y2="316.19" gradientTransform="matrix(0.99, -0.13, 0.13, 0.99, 66.75, -19.92)" gradientUnits="userSpaceOnUse"><stop offset="0" stop-color="#f57c00"/><stop offset="0.32" stop-color="#f37b00"/><stop offset="0.46" stop-color="#ec7702"/><stop offset="0.56" stop-color="#df7104"/><stop offset="0.65" stop-color="#cd6807"/><stop offset="0.72" stop-color="#b65c0b"/><stop offset="0.79" stop-color="#994e0f"/><stop offset="0.85" stop-color="#773c15"/><stop offset="0.91" stop-color="#4f281c"/><stop offset="0.96" stop-color="#241223"/><stop offset="1" stop-color="#000029"/></linearGradient><linearGradient id="linear-gradient-15" x1="514.63" y1="328.34" x2="325.43" y2="305.62" gradientTransform="matrix(0.99, -0.13, 0.13, 0.99, 66.75, -19.92)" gradientUnits="userSpaceOnUse"><stop offset="0" stop-color="#f57c00"/><stop offset="0.24" stop-color="#f37b00"/><stop offset="0.38" stop-color="#ea7702"/><stop offset="0.49" stop-color="#dc7004"/><stop offset="0.59" stop-color="#c96607"/><stop offset="0.68" stop-color="#af590c"/><stop offset="0.76" stop-color="#8f4911"/><stop offset="0.84" stop-color="#6a3617"/><stop offset="0.91" stop-color="#3e1f1f"/><stop offset="0.98" stop-color="#0e0727"/><stop offset="1" stop-color="#000029"/></linearGradient><linearGradient id="linear-gradient-16" x1="260.25" y1="519.77" x2="521.99" y2="448.07" xlink:href="#linear-gradient-14"/><linearGradient id="linear-gradient-17" x1="139.35" y1="262.84" x2="102.4" y2="1020.46" gradientTransform="matrix(0.99, -0.13, 0.13, 0.99, 66.75, -19.92)" gradientUnits="userSpaceOnUse"><stop offset="0" stop-color="#f57c00"/><stop offset="0.11" stop-color="#cc6707"/><stop offset="0.29" stop-color="#8f4811"/><stop offset="0.47" stop-color="#5c2f1a"/><stop offset="0.63" stop-color="#341a20"/><stop offset="0.78" stop-color="#180c25"/><stop offset="0.91" stop-color="#060328"/><stop offset="1" stop-color="#000029"/></linearGradient><linearGradient id="linear-gradient-18" x1="91.58" y1="509.21" x2="310.04" y2="519.37" xlink:href="#linear-gradient-14"/><linearGradient id="linear-gradient-19" x1="438.64" y1="283.49" x2="441.15" y2="576.83" gradientTransform="matrix(0.99, -0.13, 0.13, 0.99, 66.75, -19.92)" gradientUnits="userSpaceOnUse"><stop offset="0.01" stop-color="#f57c00"/><stop offset="0.15" stop-color="#f17a01"/><stop offset="0.27" stop-color="#e57403"/><stop offset="0.4" stop-color="#d26a06"/><stop offset="0.52" stop-color="#b75c0a"/><stop offset="0.64" stop-color="#934b10"/><stop offset="0.77" stop-color="#683518"/><stop offset="0.89" stop-color="#361b20"/><stop offset="1" stop-color="#000029"/></linearGradient><linearGradient id="linear-gradient-20" x1="412.34" y1="405.31" x2="505.21" y2="160.31" xlink:href="#linear-gradient-14"/><linearGradient id="linear-gradient-21" x1="190.8" y1="182.56" x2="209.84" y2="345.46" gradientTransform="matrix(0.99, -0.13, 0.13, 0.99, 66.75, -19.92)" gradientUnits="userSpaceOnUse"><stop offset="0" stop-color="#f57c00"/><stop offset="0.12" stop-color="#f17a01"/><stop offset="0.25" stop-color="#e47303"/><stop offset="0.38" stop-color="#cf6906"/><stop offset="0.51" stop-color="#b15a0b"/><stop offset="0.64" stop-color="#8b4712"/><stop offset="0.78" stop-color="#5d2f19"/><stop offset="0.91" stop-color="#271422"/><stop offset="1" stop-color="#000029"/></linearGradient><linearGradient id="linear-gradient-22" x1="125.15" y1="487.06" x2="406.94" y2="487.06" gradientUnits="userSpaceOnUse"><stop offset="0" stop-color="#fff"/><stop offset="0.14" stop-color="#d0d0d6"/><stop offset="0.38" stop-color="#878796"/><stop offset="0.59" stop-color="#4d4d63"/><stop offset="0.77" stop-color="#23233f"/><stop offset="0.92" stop-color="#090928"/><stop offset="1" stop-color="#000020"/></linearGradient></defs><title>LOGO</title><g class="cls-1"><g id="Layer_1" data-name="Layer 1"><path class="cls-2" d="M816.43,332.72a118.64,118.64,0,0,1-44.26-44.1Q756,260.69,756,226.72t16.17-61.91a118.64,118.64,0,0,1,44.26-44.1q28.1-16.17,62.07-16.17,52.93,0,87.55,38.22l-31,30.05q-22.54-26.46-56.19-26.46a80.78,80.78,0,0,0-39.85,10,72,72,0,0,0-28.26,28.25q-10.29,18.3-10.29,42.15t10.29,42.14A71.91,71.91,0,0,0,839,297.12a80.77,80.77,0,0,0,39.85,10q36.92,0,61.74-30.71l31.36,29.73a115.84,115.84,0,0,1-41,31.85q-23.7,10.95-52.44,10.95Q844.53,348.9,816.43,332.72Z"/><path class="cls-3" d="M1067,335.83,996.76,177.06h48.68l43.12,103.56h2.61l41.5-103.56h47.69L1019.8,544.13H973.73Z"/><path class="cls-4" d="M1284.41,341.71q-13.23-7.18-19.77-18H1262v19.93h-40.18V109.76h42.79v64L1262,197.31h2.61q6.87-10.77,19.93-18.13t30-7.35a77.15,77.15,0,0,1,41,11.27,78,78,0,0,1,28.91,31.53Q1395,234.88,1395,260.36q0,25.81-10.46,45.9a78.12,78.12,0,0,1-28.91,31.36,77.07,77.07,0,0,1-41,11.28Q1297.64,348.9,1284.41,341.71Zm45.24-38.55a45.48,45.48,0,0,0,16.66-17.31,55.4,55.4,0,0,0,0-51,44.44,44.44,0,0,0-39.2-23.19,43.64,43.64,0,0,0-22.21,6,44.2,44.2,0,0,0-16.66,17.15,55.4,55.4,0,0,0,0,51,45.33,45.33,0,0,0,16.66,17.31,42.76,42.76,0,0,0,22.21,6.21A43.37,43.37,0,0,0,1329.65,303.16Z"/><path class="cls-5" d="M1482.54,337.46a81.81,81.81,0,0,1-31.2-31.52q-11.27-20.1-11.27-45.25a91.1,91.1,0,0,1,11.11-44.26,85.52,85.52,0,0,1,30.71-32.51,81.76,81.76,0,0,1,43.77-12.09q25.8,0,44.43,11.11a72.51,72.51,0,0,1,28.26,30.38q9.63,19.29,9.63,42.8a100.54,100.54,0,0,1-1,14.37H1481.89q3.25,19.93,15.84,30.22T1528,311q14.7,0,25.32-6.37a47.12,47.12,0,0,0,16.82-17.15l34.63,17q-25.48,44.43-77.43,44.43Q1502.47,348.9,1482.54,337.46Zm84.28-97.35a33.17,33.17,0,0,0-5.71-15.52,40.13,40.13,0,0,0-14-12.74,42.31,42.31,0,0,0-21.07-5.06q-15.36,0-26.3,9t-15.85,24.34Z"/><path class="cls-6" d="M1662.21,177.06h40.18v22.21H1705q6.2-11.76,19.27-19.6a54.88,54.88,0,0,1,28.75-7.84,54.18,54.18,0,0,1,20.9,3.92v42.47a140.15,140.15,0,0,0-14.86-4.73,54.46,54.46,0,0,0-12.9-1.47q-19,0-30.06,13.75T1705,260.49v83.18h-42.8Z"/><path class="cls-7" d="M1846.78,337.3a82.38,82.38,0,0,1-31.52-31.69Q1804,285.53,1804,260.36q0-24.81,11.27-45.08a82,82,0,0,1,31.52-31.85q20.25-11.6,46.06-11.6,25.48,0,45.74,11.6a82,82,0,0,1,31.52,31.85q11.28,20.26,11.27,45.08,0,25.17-11.27,45.25a82.38,82.38,0,0,1-31.52,31.69q-20.26,11.59-45.74,11.6Q1867,348.9,1846.78,337.3Zm68.93-33.81a43.11,43.11,0,0,0,16.66-17q6.21-11.1,6.21-26.14,0-14.7-6.21-25.8a43.17,43.17,0,0,0-16.66-17,47.4,47.4,0,0,0-45.73,0,44.25,44.25,0,0,0-16.83,17q-6.37,11.1-6.37,25.8t6.37,26A43.94,43.94,0,0,0,1870,303.49a47.4,47.4,0,0,0,45.73,0Z"/><path class="cls-8" d="M2048,330.27q-15.69-18.61-15.68-51.94V177.06h42.79v96q0,17,8.17,26.63t21.56,9.64q18.29,0,29.08-13.4t10.78-34V177.06h42.79V343.67h-40.18V322.76h-2.61a52.81,52.81,0,0,1-21.08,19.11,64,64,0,0,1-29.89,7Q2063.69,348.9,2048,330.27Z"/><path class="cls-9" d="M2263.14,336.48q-18.79-12.41-26.3-32.34l38.22-16.66q5.24,11.76,14.87,17.8a41.12,41.12,0,0,0,22.38,6.05q11.76,0,19.6-3.76t7.84-12.25a13.24,13.24,0,0,0-7.19-12.25q-7.18-4.08-21.56-7.35l-19.6-4.25q-20.27-4.91-33.65-17.8t-13.39-32.18a41.7,41.7,0,0,1,8.65-25.81q8.65-11.43,23.52-17.64a84.58,84.58,0,0,1,32.84-6.21q51.6,0,68.93,36.26l-36.59,16q-9.81-17.64-31.36-17.64-11.11,0-17.64,4.09t-6.54,10.29q0,11.76,22.22,17.64l24.5,5.88q24.83,6.21,37.4,18.94t12.58,31.37a45.37,45.37,0,0,1-9.31,28.25q-9.32,12.25-25.48,19.12a90.77,90.77,0,0,1-35.77,6.86Q2281.92,348.9,2263.14,336.48Z"/><path class="cls-10" d="M2438.08,150.6a26.71,26.71,0,0,1-8.17-19.6,26.2,26.2,0,0,1,8.17-19.44,27,27,0,0,1,19.6-8A27.31,27.31,0,0,1,2485.12,131a27,27,0,0,1-8,19.6,26.2,26.2,0,0,1-19.44,8.17A26.71,26.71,0,0,1,2438.08,150.6Zm-2,26.46h42.8V343.67h-42.8Z"/><path class="cls-11" d="M2592.93,345.07a45.06,45.06,0,0,1-17-10.5q-15.36-15-15.36-42.64V213.65h-29.07V177.06h29.07V130h42.8v47h40.83v36.59h-40.83v70.88q0,13.1,5.55,18.81,4.58,5.37,15.68,5.37a27.89,27.89,0,0,0,10.29-1.63,79.48,79.48,0,0,0,10.62-5.55v41.81a80.14,80.14,0,0,1-29.73,5.56A66.22,66.22,0,0,1,2592.93,345.07Z"/><path class="cls-12" d="M2754.63,335.83l-70.24-158.77h48.68l43.12,103.56h2.61l41.49-103.56H2868L2765.08,414.23H2719Z"/><polygon class="cls-13" points="771.12 506.25 2713.3 506.25 2728.67 506.25 2768.2 407.76 814.2 407.76 771.12 506.25"/><text class="cls-14" transform="translate(1196.83 484.55)">T<tspan class="cls-15" x="59.2" y="0">O</tspan><tspan class="cls-16" x="137.58" y="0">GETHER</tspan><tspan class="cls-17" x="536.56" y="0"> </tspan><tspan class="cls-18" x="570.07" y="0">WE</tspan><tspan x="720.99" y="0"> </tspan><tspan class="cls-16" x="755.21" y="0">ARE</tspan><tspan class="cls-19" x="952.19" y="0"> </tspan><tspan class="cls-20" x="986.41" y="0">S</tspan><tspan class="cls-18" x="1047.08" y="0">TRO</tspan><tspan class="cls-15" x="1252.04" y="0">N</tspan><tspan class="cls-16" x="1323.51" y="0">GER</tspan></text><polygon class="cls-21" points="815.6 548.76 2713.32 548.76 2778.09 548.76 2728.69 506.25 769.75 506.25 815.6 548.76"/><path class="cls-22" d="M437.74,184.46l14.7,113.61-63.58,25.08,0,0-1.7.67a1.85,1.85,0,0,1-1.46,0l-2-.86L216,250.59a1,1,0,0,1,.15-1.77Z"/><path class="cls-23" d="M618.38,232.61,452.44,298.07l-14.7-113.61,180.59,46.36A1,1,0,0,1,618.38,232.61Z"/><path class="cls-24" d="M630.61,367.25l6.84,97.69L411.27,594.08a1.91,1.91,0,0,1-2.85-1.51l-22-268.44,96.17,114.12Z"/><path class="cls-25" d="M384.22,326.13l-.66.61-.05,0L263.94,436.58,235.4,418.31,108.51,337.12l104.58-87.19a1,1,0,0,1,1-.15l1.86.81,169.71,73.22C386.93,324.36,385.24,325.18,384.22,326.13Z"/><path class="cls-26" d="M386.71,328l21.78,265.34a1,1,0,0,1-1.55.83L241.06,462l-5.66-43.69,28.54,18.27L385.66,323.81C386.83,322.73,386.58,326.44,386.71,328Z"/><path class="cls-27" d="M722.79,323.05l-92.17,44.2-148,71-92.5-109.74-3.68-4.38c-.82-1,1.25-.47,2.43-1l0,0,63.58-25.08,165.94-65.46,2.18-.86a.92.92,0,0,1,1,.18Z"/><path class="cls-28" d="M698.64,133.44,621.49,231a.92.92,0,0,1-1,.34l-2.19-.56L437.74,184.46l61.54-81.07Z"/><path class="cls-29" d="M437.74,184.46,216.1,248.82l-2.06.59a1,1,0,0,1-.88-.18l-65.73-55L363,142.18Z"/><polygon class="cls-30" points="278.88 422.85 300.35 436.03 387.12 323.85 278.88 422.85"/><polygon class="cls-30" points="499.58 430.09 509.66 444.84 630.62 367.25 499.58 430.09"/><polygon class="cls-31" points="406.94 594.19 125.15 436.03 198.48 416.1 175.43 379.94 235.4 418.31 241.06 462 406.94 594.19"/></g></g></svg>